<mxfile host="65bd71144e">
    <diagram id="HuxnVWD3fxlY8WrwjRA4" name="Page-1">
        <mxGraphModel dx="428" dy="146" grid="1" gridSize="10" guides="1" tooltips="1" connect="1" arrows="1" fold="1" page="1" pageScale="1" pageWidth="850" pageHeight="1100" math="0" shadow="0">
            <root>
                <mxCell id="0"/>
                <mxCell id="1" parent="0"/>
                <mxCell id="AykOZnKy9bjINJLmDB4_-24" value=" Adobe Internal Network" style="rounded=1;arcSize=2;fillColor=default;strokeColor=#CCCCCC;movable=1;resizable=1;rotatable=1;deletable=1;editable=1;connectable=1;fontFamily=Helvetica;fontSize=22;perimeter=rectanglePerimeter;shadow=0;fontColor=#CCCCCC;dashed=1;align=left;verticalAlign=top;whiteSpace=wrap;strokeWidth=3;" parent="1" vertex="1">
                    <mxGeometry x="460" y="300" width="1070" height="740" as="geometry"/>
                </mxCell>
                <mxCell id="AykOZnKy9bjINJLmDB4_-25" value=" Adobe Graph" style="rounded=1;arcSize=2;movable=1;resizable=1;rotatable=1;deletable=1;editable=1;connectable=1;fontFamily=Helvetica;fontSize=26;perimeter=rectanglePerimeter;shadow=0;dashed=1;align=left;verticalAlign=top;whiteSpace=wrap;strokeWidth=4;fillColor=none;strokeColor=#BD3C39;fontColor=#BD3C39;" parent="1" vertex="1">
                    <mxGeometry x="480" y="370" width="1030" height="450" as="geometry"/>
                </mxCell>
                <mxCell id="AykOZnKy9bjINJLmDB4_-28" value=" Schema Management Autoscaling Group" style="rounded=1;arcSize=2;fillColor=default;strokeColor=#CCCCCC;movable=1;resizable=1;rotatable=1;deletable=1;editable=1;connectable=1;fontFamily=Helvetica;fontSize=22;perimeter=rectanglePerimeter;shadow=0;fontColor=#CCCCCC;dashed=1;align=left;verticalAlign=top;whiteSpace=wrap;strokeWidth=3;" parent="1" vertex="1">
                    <mxGeometry x="1070" y="450" width="420" height="340" as="geometry"/>
                </mxCell>
                <mxCell id="AykOZnKy9bjINJLmDB4_-29" value=" Pod A..." style="rounded=1;arcSize=2;fillColor=default;strokeColor=#CCCCCC;movable=1;resizable=1;rotatable=1;deletable=1;editable=1;connectable=1;fontFamily=Helvetica;fontSize=22;perimeter=rectanglePerimeter;shadow=0;fontColor=#CCCCCC;dashed=1;align=left;verticalAlign=top;whiteSpace=wrap;strokeWidth=3;" parent="1" vertex="1">
                    <mxGeometry x="1120" y="540" width="320" height="220" as="geometry"/>
                </mxCell>
                <mxCell id="AykOZnKy9bjINJLmDB4_-26" value=" GraphQL Server Autoscaling Group" style="rounded=1;arcSize=2;fillColor=default;strokeColor=#CCCCCC;movable=1;resizable=1;rotatable=1;deletable=1;editable=1;connectable=1;fontFamily=Helvetica;fontSize=22;perimeter=rectanglePerimeter;shadow=0;fontColor=#CCCCCC;dashed=1;align=left;verticalAlign=top;whiteSpace=wrap;strokeWidth=3;" parent="1" vertex="1">
                    <mxGeometry x="500" y="460" width="420" height="330" as="geometry"/>
                </mxCell>
                <mxCell id="AykOZnKy9bjINJLmDB4_-27" value=" Pod 1..." style="rounded=1;arcSize=2;fillColor=default;strokeColor=#CCCCCC;movable=1;resizable=1;rotatable=1;deletable=1;editable=1;connectable=1;fontFamily=Helvetica;fontSize=22;perimeter=rectanglePerimeter;shadow=0;fontColor=#CCCCCC;dashed=1;align=left;verticalAlign=top;whiteSpace=wrap;strokeWidth=3;" parent="1" vertex="1">
                    <mxGeometry x="547.5" y="540" width="325" height="220" as="geometry"/>
                </mxCell>
                <mxCell id="AykOZnKy9bjINJLmDB4_-15" style="edgeStyle=orthogonalEdgeStyle;rounded=0;orthogonalLoop=1;jettySize=auto;html=1;exitX=0.377;exitY=1.006;exitDx=0;exitDy=0;endSize=20;entryX=0.5;entryY=0;entryDx=0;entryDy=0;exitPerimeter=0;" parent="1" source="XAE0YdJrRLPsoNwTPt81-1" target="AykOZnKy9bjINJLmDB4_-26" edge="1">
                    <mxGeometry relative="1" as="geometry">
                        <mxPoint x="810" y="410" as="targetPoint"/>
                        <Array as="points">
                            <mxPoint x="955" y="410"/>
                            <mxPoint x="710" y="410"/>
                        </Array>
                    </mxGeometry>
                </mxCell>
                <mxCell id="AykOZnKy9bjINJLmDB4_-22" style="edgeStyle=orthogonalEdgeStyle;rounded=0;orthogonalLoop=1;jettySize=auto;html=1;exitX=0.634;exitY=1.006;exitDx=0;exitDy=0;startArrow=none;startFill=0;endArrow=classic;endFill=1;endSize=20;exitPerimeter=0;entryX=0.5;entryY=0;entryDx=0;entryDy=0;" parent="1" source="XAE0YdJrRLPsoNwTPt81-1" target="AykOZnKy9bjINJLmDB4_-28" edge="1">
                    <mxGeometry relative="1" as="geometry">
                        <mxPoint x="1410" y="450" as="targetPoint"/>
                        <Array as="points">
                            <mxPoint x="1007" y="410"/>
                            <mxPoint x="1280" y="410"/>
                        </Array>
                    </mxGeometry>
                </mxCell>
                <mxCell id="XAE0YdJrRLPsoNwTPt81-1" value="&lt;div&gt;&lt;font style=&quot;font-size: 24px&quot;&gt;Adobe I/O Gateway&lt;/font&gt;&lt;/div&gt;" style="rounded=1;whiteSpace=wrap;html=1;arcSize=2;fillColor=default;strokeColor=#000000;movable=1;resizable=1;rotatable=1;deletable=1;editable=1;connectable=1;fontFamily=Verdana;fontSize=13;perimeter=rectanglePerimeter;shadow=0;fontColor=#333333;align=center;" parent="1" vertex="1">
                    <mxGeometry x="880" y="240" width="200" height="120" as="geometry"/>
                </mxCell>
                <mxCell id="AykOZnKy9bjINJLmDB4_-12" style="edgeStyle=orthogonalEdgeStyle;rounded=0;orthogonalLoop=1;jettySize=auto;html=1;exitX=0.5;exitY=1;exitDx=0;exitDy=0;entryX=0.5;entryY=0;entryDx=0;entryDy=0;" parent="1" source="XAE0YdJrRLPsoNwTPt81-8" target="XAE0YdJrRLPsoNwTPt81-1" edge="1">
                    <mxGeometry relative="1" as="geometry">
                        <mxPoint x="980" y="200" as="targetPoint"/>
                        <Array as="points">
                            <mxPoint x="420" y="180"/>
                            <mxPoint x="980" y="180"/>
                        </Array>
                    </mxGeometry>
                </mxCell>
                <mxCell id="XAE0YdJrRLPsoNwTPt81-8" value="&lt;div&gt;&lt;font style=&quot;font-size: 24px&quot;&gt;PWA&lt;/font&gt;&lt;/div&gt;" style="rounded=1;whiteSpace=wrap;html=1;arcSize=2;fillColor=none;strokeColor=#000000;movable=1;resizable=1;rotatable=1;deletable=1;editable=1;connectable=1;fontFamily=Verdana;fontSize=13;perimeter=rectanglePerimeter;shadow=0;fontColor=#333333;align=center;" parent="1" vertex="1">
                    <mxGeometry x="320" y="40" width="200" height="120" as="geometry"/>
                </mxCell>
                <mxCell id="AykOZnKy9bjINJLmDB4_-11" style="edgeStyle=orthogonalEdgeStyle;rounded=0;orthogonalLoop=1;jettySize=auto;html=1;exitX=0.5;exitY=1;exitDx=0;exitDy=0;" parent="1" source="XAE0YdJrRLPsoNwTPt81-9" target="XAE0YdJrRLPsoNwTPt81-1" edge="1">
                    <mxGeometry relative="1" as="geometry">
                        <Array as="points">
                            <mxPoint x="700" y="180"/>
                            <mxPoint x="980" y="180"/>
                        </Array>
                    </mxGeometry>
                </mxCell>
                <mxCell id="XAE0YdJrRLPsoNwTPt81-9" value="&lt;div&gt;&lt;font style=&quot;font-size: 24px&quot;&gt;Custom Client&lt;/font&gt;&lt;/div&gt;&lt;div&gt;&lt;font style=&quot;font-size: 24px&quot;&gt;Application&lt;/font&gt;&lt;/div&gt;" style="rounded=1;whiteSpace=wrap;html=1;arcSize=2;fillColor=none;strokeColor=#000000;movable=1;resizable=1;rotatable=1;deletable=1;editable=1;connectable=1;fontFamily=Verdana;fontSize=13;perimeter=rectanglePerimeter;shadow=0;fontColor=#333333;align=center;" parent="1" vertex="1">
                    <mxGeometry x="600" y="40" width="200" height="120" as="geometry"/>
                </mxCell>
                <mxCell id="AykOZnKy9bjINJLmDB4_-13" style="edgeStyle=orthogonalEdgeStyle;rounded=0;orthogonalLoop=1;jettySize=auto;html=1;exitX=0.5;exitY=1;exitDx=0;exitDy=0;entryX=0.5;entryY=0;entryDx=0;entryDy=0;" parent="1" source="XAE0YdJrRLPsoNwTPt81-10" target="XAE0YdJrRLPsoNwTPt81-1" edge="1">
                    <mxGeometry relative="1" as="geometry">
                        <Array as="points">
                            <mxPoint x="1260" y="180"/>
                            <mxPoint x="980" y="180"/>
                        </Array>
                    </mxGeometry>
                </mxCell>
                <mxCell id="XAE0YdJrRLPsoNwTPt81-10" value="&lt;div&gt;&lt;font style=&quot;font-size: 24px&quot;&gt;Adobe I/O CLI&amp;nbsp;&lt;/font&gt;&lt;/div&gt;&lt;div&gt;&lt;font style=&quot;font-size: 20px&quot;&gt;with Plugin&lt;/font&gt;&lt;/div&gt;" style="rounded=1;whiteSpace=wrap;html=1;arcSize=2;fillColor=none;strokeColor=#000000;movable=1;resizable=1;rotatable=1;deletable=1;editable=1;connectable=1;fontFamily=Verdana;fontSize=13;perimeter=rectanglePerimeter;shadow=0;fontColor=#333333;align=center;" parent="1" vertex="1">
                    <mxGeometry x="1160" y="40" width="200" height="120" as="geometry"/>
                </mxCell>
                <mxCell id="XAE0YdJrRLPsoNwTPt81-11" value="&lt;div&gt;&lt;font style=&quot;font-size: 24px&quot; color=&quot;#cccccc&quot;&gt;Schema Management UI&lt;/font&gt;&lt;/div&gt;&lt;div&gt;&lt;span style=&quot;font-size: 20px ; color: rgb(204 , 204 , 204)&quot;&gt;(Coming Soon)&lt;/span&gt;&lt;br&gt;&lt;/div&gt;" style="rounded=1;whiteSpace=wrap;html=1;arcSize=2;fillColor=none;strokeColor=#CCE5FF;movable=1;resizable=1;rotatable=1;deletable=1;editable=1;connectable=1;fontFamily=Verdana;fontSize=13;perimeter=rectanglePerimeter;shadow=0;fontColor=#333333;align=center;dashed=1;strokeWidth=4;" parent="1" vertex="1">
                    <mxGeometry x="1440" y="40" width="200" height="120" as="geometry"/>
                </mxCell>
                <mxCell id="AykOZnKy9bjINJLmDB4_-16" style="edgeStyle=orthogonalEdgeStyle;rounded=0;orthogonalLoop=1;jettySize=auto;html=1;exitX=0.5;exitY=0;exitDx=0;exitDy=0;entryX=1;entryY=0.5;entryDx=0;entryDy=0;endSize=20;" parent="1" source="AykOZnKy9bjINJLmDB4_-3" target="AykOZnKy9bjINJLmDB4_-6" edge="1">
                    <mxGeometry relative="1" as="geometry">
                        <Array as="points">
                            <mxPoint x="710" y="750"/>
                            <mxPoint x="300" y="750"/>
                            <mxPoint x="300" y="460"/>
                        </Array>
                    </mxGeometry>
                </mxCell>
                <mxCell id="AykOZnKy9bjINJLmDB4_-23" style="edgeStyle=orthogonalEdgeStyle;rounded=0;orthogonalLoop=1;jettySize=auto;html=1;exitX=1;exitY=0.25;exitDx=0;exitDy=0;startArrow=none;startFill=0;endArrow=classic;endFill=1;endSize=20;entryX=0;entryY=0.5;entryDx=0;entryDy=0;" parent="1" source="AykOZnKy9bjINJLmDB4_-3" target="AykOZnKy9bjINJLmDB4_-28" edge="1">
                    <mxGeometry relative="1" as="geometry">
                        <mxPoint x="1060" y="630" as="targetPoint"/>
                        <Array as="points">
                            <mxPoint x="940" y="620"/>
                            <mxPoint x="940" y="620"/>
                        </Array>
                    </mxGeometry>
                </mxCell>
                <mxCell id="AykOZnKy9bjINJLmDB4_-3" value="&lt;div&gt;&lt;font style=&quot;font-size: 24px&quot;&gt;GraphQL&amp;nbsp;&lt;/font&gt;&lt;/div&gt;&lt;div&gt;&lt;font style=&quot;font-size: 24px&quot;&gt;Server Container&lt;/font&gt;&lt;/div&gt;" style="rounded=1;whiteSpace=wrap;html=1;arcSize=2;fillColor=#D4E1F5;strokeColor=#000000;movable=1;resizable=1;rotatable=1;deletable=1;editable=1;connectable=1;fontFamily=Verdana;fontSize=13;perimeter=rectanglePerimeter;shadow=0;align=center;" parent="1" vertex="1">
                    <mxGeometry x="610" y="590" width="200" height="120" as="geometry"/>
                </mxCell>
                <mxCell id="AykOZnKy9bjINJLmDB4_-4" value="&lt;div&gt;&lt;font style=&quot;font-size: 22px&quot;&gt;GraphQL Schema Management Service&lt;/font&gt;&lt;/div&gt;" style="rounded=1;whiteSpace=wrap;html=1;arcSize=2;fillColor=#D4E1F5;strokeColor=#000000;movable=1;resizable=1;rotatable=1;deletable=1;editable=1;connectable=1;fontFamily=Verdana;fontSize=13;perimeter=rectanglePerimeter;shadow=0;align=center;" parent="1" vertex="1">
                    <mxGeometry x="1185" y="590" width="200" height="120" as="geometry"/>
                </mxCell>
                <mxCell id="AykOZnKy9bjINJLmDB4_-30" style="edgeStyle=orthogonalEdgeStyle;rounded=0;orthogonalLoop=1;jettySize=auto;html=1;exitX=0.5;exitY=0;exitDx=0;exitDy=0;fontSize=27;fontColor=#97D077;startArrow=none;startFill=0;endArrow=classic;endFill=1;startSize=20;endSize=20;entryX=0;entryY=0.75;entryDx=0;entryDy=0;" parent="1" source="AykOZnKy9bjINJLmDB4_-5" target="AykOZnKy9bjINJLmDB4_-28" edge="1">
                    <mxGeometry relative="1" as="geometry">
                        <Array as="points">
                            <mxPoint x="1020" y="870"/>
                            <mxPoint x="1020" y="705"/>
                        </Array>
                        <mxPoint x="1170" y="710" as="targetPoint"/>
                    </mxGeometry>
                </mxCell>
                <mxCell id="AykOZnKy9bjINJLmDB4_-5" value="&lt;div&gt;&lt;font style=&quot;font-size: 24px&quot;&gt;App Builder Extension Registry&lt;/font&gt;&lt;/div&gt;" style="rounded=1;whiteSpace=wrap;html=1;arcSize=2;fillColor=none;strokeColor=#000000;movable=1;resizable=1;rotatable=1;deletable=1;editable=1;connectable=1;fontFamily=Verdana;fontSize=13;perimeter=rectanglePerimeter;shadow=0;fontColor=#333333;align=center;" parent="1" vertex="1">
                    <mxGeometry x="560" y="870" width="200" height="120" as="geometry"/>
                </mxCell>
                <mxCell id="AykOZnKy9bjINJLmDB4_-6" value="&lt;div&gt;&lt;font style=&quot;font-size: 24px&quot;&gt;I/O Runtime Extension A&lt;/font&gt;&lt;/div&gt;&lt;div&gt;&lt;font style=&quot;font-size: 24px&quot;&gt;(REST)&lt;/font&gt;&lt;/div&gt;" style="rounded=1;whiteSpace=wrap;html=1;arcSize=2;fillColor=none;strokeColor=#000000;movable=1;resizable=1;rotatable=1;deletable=1;editable=1;connectable=1;fontFamily=Verdana;fontSize=13;perimeter=rectanglePerimeter;shadow=0;fontColor=#333333;align=center;" parent="1" vertex="1">
                    <mxGeometry x="60" y="400" width="200" height="120" as="geometry"/>
                </mxCell>
                <mxCell id="AykOZnKy9bjINJLmDB4_-17" style="edgeStyle=orthogonalEdgeStyle;rounded=0;orthogonalLoop=1;jettySize=auto;html=1;exitX=1;exitY=0.5;exitDx=0;exitDy=0;startArrow=classic;startFill=1;endArrow=none;endFill=0;endSize=20;startSize=20;" parent="1" source="AykOZnKy9bjINJLmDB4_-7" edge="1">
                    <mxGeometry relative="1" as="geometry">
                        <mxPoint x="710" y="710" as="targetPoint"/>
                        <Array as="points">
                            <mxPoint x="300" y="620"/>
                            <mxPoint x="300" y="750"/>
                            <mxPoint x="710" y="750"/>
                        </Array>
                    </mxGeometry>
                </mxCell>
                <mxCell id="AykOZnKy9bjINJLmDB4_-7" value="&lt;div&gt;&lt;font style=&quot;font-size: 24px&quot;&gt;I/O Runtime Extension B&lt;/font&gt;&lt;/div&gt;&lt;div&gt;&lt;font style=&quot;font-size: 24px&quot;&gt;(REST)&lt;br&gt;&lt;/font&gt;&lt;/div&gt;" style="rounded=1;whiteSpace=wrap;html=1;arcSize=2;fillColor=none;strokeColor=#000000;movable=1;resizable=1;rotatable=1;deletable=1;editable=1;connectable=1;fontFamily=Verdana;fontSize=13;perimeter=rectanglePerimeter;shadow=0;fontColor=#333333;align=center;" parent="1" vertex="1">
                    <mxGeometry x="60" y="560" width="200" height="120" as="geometry"/>
                </mxCell>
                <mxCell id="AykOZnKy9bjINJLmDB4_-19" style="edgeStyle=orthogonalEdgeStyle;rounded=0;orthogonalLoop=1;jettySize=auto;html=1;exitX=1;exitY=0.5;exitDx=0;exitDy=0;startArrow=classic;startFill=1;endArrow=none;endFill=0;endSize=20;startSize=20;" parent="1" source="AykOZnKy9bjINJLmDB4_-8" edge="1">
                    <mxGeometry relative="1" as="geometry">
                        <Array as="points">
                            <mxPoint x="300" y="820"/>
                            <mxPoint x="300" y="750"/>
                            <mxPoint x="710" y="750"/>
                        </Array>
                        <mxPoint x="710" y="710" as="targetPoint"/>
                    </mxGeometry>
                </mxCell>
                <mxCell id="AykOZnKy9bjINJLmDB4_-8" value="&lt;div&gt;&lt;font style=&quot;font-size: 24px&quot;&gt;LiveSearch&lt;/font&gt;&lt;/div&gt;&lt;div&gt;&lt;font style=&quot;font-size: 24px&quot;&gt;Multitenant&lt;/font&gt;&lt;/div&gt;&lt;div&gt;&lt;font style=&quot;font-size: 24px&quot;&gt;GraphQL&lt;/font&gt;&lt;/div&gt;" style="rounded=1;whiteSpace=wrap;html=1;arcSize=2;fillColor=none;strokeColor=#000000;movable=1;resizable=1;rotatable=1;deletable=1;editable=1;connectable=1;fontFamily=Verdana;fontSize=13;perimeter=rectanglePerimeter;shadow=0;fontColor=#333333;align=center;" parent="1" vertex="1">
                    <mxGeometry x="60" y="760" width="200" height="120" as="geometry"/>
                </mxCell>
                <mxCell id="AykOZnKy9bjINJLmDB4_-20" style="edgeStyle=orthogonalEdgeStyle;rounded=0;orthogonalLoop=1;jettySize=auto;html=1;exitX=1;exitY=0.5;exitDx=0;exitDy=0;startArrow=classic;startFill=1;endArrow=none;endFill=0;endSize=20;startSize=20;" parent="1" source="AykOZnKy9bjINJLmDB4_-9" edge="1">
                    <mxGeometry relative="1" as="geometry">
                        <Array as="points">
                            <mxPoint x="300" y="980"/>
                            <mxPoint x="300" y="750"/>
                            <mxPoint x="710" y="750"/>
                        </Array>
                        <mxPoint x="710" y="710" as="targetPoint"/>
                    </mxGeometry>
                </mxCell>
                <mxCell id="AykOZnKy9bjINJLmDB4_-9" value="&lt;div&gt;&lt;font style=&quot;font-size: 24px&quot;&gt;AEM GraphQL&lt;/font&gt;&lt;/div&gt;" style="rounded=1;whiteSpace=wrap;html=1;arcSize=2;fillColor=none;strokeColor=#000000;movable=1;resizable=1;rotatable=1;deletable=1;editable=1;connectable=1;fontFamily=Verdana;fontSize=13;perimeter=rectanglePerimeter;shadow=0;fontColor=#333333;align=center;" parent="1" vertex="1">
                    <mxGeometry x="60" y="920" width="200" height="120" as="geometry"/>
                </mxCell>
                <mxCell id="AykOZnKy9bjINJLmDB4_-18" style="edgeStyle=orthogonalEdgeStyle;rounded=0;orthogonalLoop=1;jettySize=auto;html=1;exitX=1;exitY=0.5;exitDx=0;exitDy=0;entryX=0.5;entryY=1;entryDx=0;entryDy=0;startArrow=classic;startFill=1;endArrow=none;endFill=0;endSize=20;startSize=20;" parent="1" source="AykOZnKy9bjINJLmDB4_-10" target="AykOZnKy9bjINJLmDB4_-3" edge="1">
                    <mxGeometry relative="1" as="geometry">
                        <Array as="points">
                            <mxPoint x="300" y="300"/>
                            <mxPoint x="300" y="750"/>
                            <mxPoint x="710" y="750"/>
                        </Array>
                    </mxGeometry>
                </mxCell>
                <mxCell id="AykOZnKy9bjINJLmDB4_-10" value="&lt;div&gt;&lt;font style=&quot;font-size: 24px&quot;&gt;Adobe Commerce GraphQL&lt;/font&gt;&lt;/div&gt;" style="rounded=1;whiteSpace=wrap;html=1;arcSize=2;fillColor=none;strokeColor=#000000;movable=1;resizable=1;rotatable=1;deletable=1;editable=1;connectable=1;fontFamily=Verdana;fontSize=13;perimeter=rectanglePerimeter;shadow=0;fontColor=#333333;align=center;" parent="1" vertex="1">
                    <mxGeometry x="60" y="240" width="200" height="120" as="geometry"/>
                </mxCell>
                <mxCell id="AykOZnKy9bjINJLmDB4_-36" value="&lt;div&gt;&lt;font style=&quot;font-size: 20px&quot;&gt;Fetch Data&lt;/font&gt;&lt;/div&gt;" style="rounded=1;whiteSpace=wrap;html=1;arcSize=2;fillColor=none;strokeColor=none;movable=1;resizable=1;rotatable=1;deletable=1;editable=1;connectable=1;fontFamily=Verdana;fontSize=13;perimeter=rectanglePerimeter;shadow=0;fontColor=#333333;align=center;" parent="1" vertex="1">
                    <mxGeometry x="310" y="710" width="200" height="40" as="geometry"/>
                </mxCell>
                <mxCell id="AykOZnKy9bjINJLmDB4_-37" value="&lt;div&gt;&lt;font style=&quot;font-size: 18px&quot;&gt;API Calls&lt;/font&gt;&lt;/div&gt;" style="rounded=1;whiteSpace=wrap;html=1;arcSize=2;fillColor=none;strokeColor=none;movable=1;resizable=1;rotatable=1;deletable=1;editable=1;connectable=1;fontFamily=Verdana;fontSize=13;perimeter=rectanglePerimeter;shadow=0;fontColor=#333333;align=center;" parent="1" vertex="1">
                    <mxGeometry x="780" y="150" width="200" height="40" as="geometry"/>
                </mxCell>
                <mxCell id="AykOZnKy9bjINJLmDB4_-38" value="&lt;div&gt;&lt;font style=&quot;font-size: 18px&quot;&gt;Configure Mesh&lt;/font&gt;&lt;/div&gt;" style="rounded=1;whiteSpace=wrap;html=1;arcSize=2;fillColor=none;strokeColor=none;movable=1;resizable=1;rotatable=1;deletable=1;editable=1;connectable=1;fontFamily=Verdana;fontSize=13;perimeter=rectanglePerimeter;shadow=0;fontColor=#333333;align=center;" parent="1" vertex="1">
                    <mxGeometry x="980" y="150" width="200" height="40" as="geometry"/>
                </mxCell>
                <mxCell id="AykOZnKy9bjINJLmDB4_-39" value="" style="edgeStyle=orthogonalEdgeStyle;rounded=0;orthogonalLoop=1;jettySize=auto;html=1;exitX=0.5;exitY=1;exitDx=0;exitDy=0;entryX=0.5;entryY=0;entryDx=0;entryDy=0;endSize=20;endArrow=none;" parent="1" source="XAE0YdJrRLPsoNwTPt81-11" target="XAE0YdJrRLPsoNwTPt81-1" edge="1">
                    <mxGeometry relative="1" as="geometry">
                        <mxPoint x="1540" y="160" as="sourcePoint"/>
                        <mxPoint x="980" y="240" as="targetPoint"/>
                        <Array as="points">
                            <mxPoint x="1540" y="180"/>
                            <mxPoint x="980" y="180"/>
                        </Array>
                    </mxGeometry>
                </mxCell>
                <mxCell id="AykOZnKy9bjINJLmDB4_-40" style="edgeStyle=orthogonalEdgeStyle;rounded=0;orthogonalLoop=1;jettySize=auto;html=1;exitX=0.5;exitY=1;exitDx=0;exitDy=0;fontSize=20;fontColor=#97D077;startArrow=none;startFill=0;endArrow=none;endFill=0;startSize=20;endSize=20;strokeColor=#F8CECC;" parent="1" source="AykOZnKy9bjINJLmDB4_-38" target="AykOZnKy9bjINJLmDB4_-38" edge="1">
                    <mxGeometry relative="1" as="geometry"/>
                </mxCell>
                <mxCell id="AykOZnKy9bjINJLmDB4_-41" style="edgeStyle=orthogonalEdgeStyle;rounded=0;orthogonalLoop=1;jettySize=auto;html=1;exitX=0.5;exitY=1;exitDx=0;exitDy=0;fontSize=20;fontColor=#97D077;startArrow=none;startFill=0;endArrow=none;endFill=0;startSize=20;endSize=20;strokeColor=#F8CECC;" parent="1" source="AykOZnKy9bjINJLmDB4_-38" target="AykOZnKy9bjINJLmDB4_-38" edge="1">
                    <mxGeometry relative="1" as="geometry"/>
                </mxCell>
                <mxCell id="AykOZnKy9bjINJLmDB4_-43" value="&lt;div&gt;&lt;font style=&quot;font-size: 18px&quot;&gt;API Calls&lt;/font&gt;&lt;/div&gt;" style="rounded=1;whiteSpace=wrap;html=1;arcSize=2;fillColor=none;strokeColor=none;movable=1;resizable=1;rotatable=1;deletable=1;editable=1;connectable=1;fontFamily=Verdana;fontSize=13;perimeter=rectanglePerimeter;shadow=0;fontColor=#333333;align=center;" parent="1" vertex="1">
                    <mxGeometry x="730" y="380" width="200" height="40" as="geometry"/>
                </mxCell>
                <mxCell id="AykOZnKy9bjINJLmDB4_-44" value="&lt;div&gt;&lt;font style=&quot;font-size: 18px&quot;&gt;Configure Mesh&lt;/font&gt;&lt;/div&gt;" style="rounded=1;whiteSpace=wrap;html=1;arcSize=2;fillColor=none;strokeColor=none;movable=1;resizable=1;rotatable=1;deletable=1;editable=1;connectable=1;fontFamily=Verdana;fontSize=13;perimeter=rectanglePerimeter;shadow=0;fontColor=#333333;align=center;" parent="1" vertex="1">
                    <mxGeometry x="1040" y="380" width="200" height="40" as="geometry"/>
                </mxCell>
                <mxCell id="AykOZnKy9bjINJLmDB4_-46" value="&lt;div&gt;&lt;font style=&quot;font-size: 18px&quot;&gt;Read Tenant&lt;/font&gt;&lt;/div&gt;&lt;div style=&quot;font-size: 10px&quot;&gt;&lt;span&gt;&lt;br&gt;&lt;/span&gt;&lt;/div&gt;&lt;div&gt;&lt;span style=&quot;font-size: 18px&quot;&gt;Mesh Config&lt;/span&gt;&lt;/div&gt;" style="rounded=1;whiteSpace=wrap;html=1;arcSize=2;fillColor=none;strokeColor=none;movable=1;resizable=1;rotatable=1;deletable=1;editable=1;connectable=1;fontFamily=Verdana;fontSize=13;perimeter=rectanglePerimeter;shadow=0;fontColor=#333333;align=center;" parent="1" vertex="1">
                    <mxGeometry x="830" y="600" width="310" height="40" as="geometry"/>
                </mxCell>
                <mxCell id="AykOZnKy9bjINJLmDB4_-47" value="&lt;div&gt;&lt;font style=&quot;font-size: 18px&quot;&gt;Add Extension&lt;/font&gt;&lt;/div&gt;" style="rounded=1;whiteSpace=wrap;html=1;arcSize=2;fillColor=none;strokeColor=none;movable=1;resizable=1;rotatable=1;deletable=1;editable=1;connectable=1;fontFamily=Verdana;fontSize=13;perimeter=rectanglePerimeter;shadow=0;fontColor=#333333;align=center;" parent="1" vertex="1">
                    <mxGeometry x="780" y="840" width="200" height="40" as="geometry"/>
                </mxCell>
                <mxCell id="AykOZnKy9bjINJLmDB4_-49" value="&lt;div style=&quot;text-align: center&quot;&gt;&lt;font style=&quot;line-height: 100% ; font-size: 24px&quot;&gt;1&lt;/font&gt;&lt;/div&gt;" style="ellipse;whiteSpace=wrap;html=1;aspect=fixed;fillColor=#BD3C39;fontFamily=Helvetica;align=center;strokeColor=none;fontSize=14;verticalAlign=middle;horizontal=1;spacingTop=0;spacingRight=0;spacingLeft=0;fontColor=#FFFFFF;spacing=0;labelPosition=center;verticalLabelPosition=middle;spacingBottom=2;dashed=1;" parent="1" vertex="1">
                    <mxGeometry x="920" y="190" width="40" height="40" as="geometry"/>
                </mxCell>
                <mxCell id="AykOZnKy9bjINJLmDB4_-50" value="&lt;div style=&quot;text-align: center&quot;&gt;&lt;font style=&quot;line-height: 100% ; font-size: 24px&quot;&gt;A&lt;/font&gt;&lt;/div&gt;" style="ellipse;whiteSpace=wrap;html=1;aspect=fixed;fillColor=#BD3C39;fontFamily=Helvetica;align=center;strokeColor=none;fontSize=14;verticalAlign=middle;horizontal=1;spacingTop=0;spacingRight=0;spacingLeft=0;fontColor=#FFFFFF;spacing=0;labelPosition=center;verticalLabelPosition=middle;spacingBottom=2;dashed=1;" parent="1" vertex="1">
                    <mxGeometry x="1000" y="190" width="40" height="40" as="geometry"/>
                </mxCell>
                <mxCell id="AykOZnKy9bjINJLmDB4_-51" value="&lt;div style=&quot;text-align: center&quot;&gt;&lt;font style=&quot;line-height: 100% ; font-size: 24px&quot;&gt;2&lt;/font&gt;&lt;/div&gt;" style="ellipse;whiteSpace=wrap;html=1;aspect=fixed;fillColor=#BD3C39;fontFamily=Helvetica;align=center;strokeColor=none;fontSize=14;verticalAlign=middle;horizontal=1;spacingTop=0;spacingRight=0;spacingLeft=0;fontColor=#FFFFFF;spacing=0;labelPosition=center;verticalLabelPosition=middle;spacingBottom=2;dashed=1;" parent="1" vertex="1">
                    <mxGeometry x="820" y="600" width="40" height="40" as="geometry"/>
                </mxCell>
                <mxCell id="AykOZnKy9bjINJLmDB4_-52" value="&lt;div style=&quot;text-align: center&quot;&gt;&lt;font style=&quot;line-height: 100% ; font-size: 24px&quot;&gt;3&lt;/font&gt;&lt;/div&gt;" style="ellipse;whiteSpace=wrap;html=1;aspect=fixed;fillColor=#BD3C39;fontFamily=Helvetica;align=center;strokeColor=none;fontSize=14;verticalAlign=middle;horizontal=1;spacingTop=0;spacingRight=0;spacingLeft=0;fontColor=#FFFFFF;spacing=0;labelPosition=center;verticalLabelPosition=middle;spacingBottom=2;dashed=1;" parent="1" vertex="1">
                    <mxGeometry x="310" y="710" width="40" height="40" as="geometry"/>
                </mxCell>
                <mxCell id="AykOZnKy9bjINJLmDB4_-53" value="&lt;div style=&quot;text-align: center&quot;&gt;&lt;font style=&quot;line-height: 100% ; font-size: 24px&quot;&gt;B&lt;/font&gt;&lt;/div&gt;" style="ellipse;whiteSpace=wrap;html=1;aspect=fixed;fillColor=#BD3C39;fontFamily=Helvetica;align=center;strokeColor=none;fontSize=14;verticalAlign=middle;horizontal=1;spacingTop=0;spacingRight=0;spacingLeft=0;fontColor=#FFFFFF;spacing=0;labelPosition=center;verticalLabelPosition=middle;spacingBottom=2;dashed=1;" parent="1" vertex="1">
                    <mxGeometry x="1000" y="850" width="40" height="40" as="geometry"/>
                </mxCell>
                <mxCell id="AykOZnKy9bjINJLmDB4_-55" value="&lt;div style=&quot;text-align: left&quot;&gt;&lt;font style=&quot;font-size: 22px&quot;&gt;Legend&lt;/font&gt;&lt;/div&gt;" style="rounded=1;whiteSpace=wrap;html=1;arcSize=2;fillColor=#f4f4f4;strokeColor=#000000;movable=1;resizable=1;rotatable=1;deletable=1;editable=1;connectable=1;fontFamily=Helvetica;fontSize=26;perimeter=rectanglePerimeter;shadow=0;fontColor=#333333;strokeWidth=2;verticalAlign=top;fontStyle=1" parent="1" vertex="1">
                    <mxGeometry x="830" y="920" width="650" height="220" as="geometry"/>
                </mxCell>
                <mxCell id="AykOZnKy9bjINJLmDB4_-56" value="&lt;font color=&quot;#000000&quot; style=&quot;font-size: 18px&quot;&gt;- Boundary of the Multitenant GraphQL Gateway Services&lt;/font&gt;" style="text;html=1;align=left;verticalAlign=middle;resizable=0;points=[];autosize=1;strokeColor=none;fillColor=none;fontSize=26;fontColor=#BD3C39;" parent="1" vertex="1">
                    <mxGeometry x="900" y="964.0600000000001" width="480" height="40" as="geometry"/>
                </mxCell>
                <mxCell id="AykOZnKy9bjINJLmDB4_-57" value="" style="rounded=1;arcSize=2;movable=1;resizable=1;rotatable=1;deletable=1;editable=1;connectable=1;fontFamily=Helvetica;fontSize=27;perimeter=rectanglePerimeter;shadow=0;dashed=1;align=left;verticalAlign=top;whiteSpace=wrap;strokeWidth=4;fillColor=none;strokeColor=#BD3C39;fontColor=#BD3C39;" parent="1" vertex="1">
                    <mxGeometry x="850" y="965" width="40" height="38.13" as="geometry"/>
                </mxCell>
                <mxCell id="AykOZnKy9bjINJLmDB4_-58" value="&lt;span data-lucid-type=&quot;application/vnd.lucid.text&quot; data-lucid-content=&quot;{&amp;#34;t&amp;#34;:&amp;#34;Components that are implemented/modified in the scope of GraphQL Gateway project&amp;#34;,&amp;#34;m&amp;#34;:[{&amp;#34;s&amp;#34;:0,&amp;#34;n&amp;#34;:&amp;#34;a&amp;#34;,&amp;#34;v&amp;#34;:&amp;#34;left&amp;#34;},{&amp;#34;s&amp;#34;:0,&amp;#34;n&amp;#34;:&amp;#34;s&amp;#34;,&amp;#34;v&amp;#34;:22.22222222222222,&amp;#34;e&amp;#34;:80},{&amp;#34;s&amp;#34;:0,&amp;#34;n&amp;#34;:&amp;#34;c&amp;#34;,&amp;#34;v&amp;#34;:&amp;#34;333333ff&amp;#34;,&amp;#34;e&amp;#34;:80}]}&quot;&gt;&lt;span style=&quot;color: rgb(51 , 51 , 51)&quot;&gt;&lt;font style=&quot;font-size: 18px&quot;&gt;- Components created in the scope of the GraphQL Gateway project&lt;/font&gt;&lt;/span&gt;&lt;/span&gt;" style="text;html=1;align=left;verticalAlign=middle;resizable=0;points=[];autosize=1;strokeColor=none;fillColor=none;fontSize=26;fontColor=#000000;" parent="1" vertex="1">
                    <mxGeometry x="900" y="1020.94" width="560" height="40" as="geometry"/>
                </mxCell>
                <mxCell id="AykOZnKy9bjINJLmDB4_-59" value="" style="rounded=1;whiteSpace=wrap;html=1;arcSize=2;fillColor=#D4E1F5;strokeColor=#000000;movable=1;resizable=1;rotatable=1;deletable=1;editable=1;connectable=1;fontFamily=Verdana;fontSize=13;perimeter=rectanglePerimeter;shadow=0;align=center;" parent="1" vertex="1">
                    <mxGeometry x="850" y="1020.0000000000002" width="40" height="41.87" as="geometry"/>
                </mxCell>
                <mxCell id="a9YrrqM9pUhJxThZkxXl-3" value="&lt;font color=&quot;#000000&quot; style=&quot;font-size: 18px&quot;&gt;- Coming soon&lt;/font&gt;" style="text;html=1;align=left;verticalAlign=middle;resizable=0;points=[];autosize=1;strokeColor=none;fillColor=none;fontSize=26;fontColor=#BD3C39;" parent="1" vertex="1">
                    <mxGeometry x="900" y="1080.93" width="130" height="40" as="geometry"/>
                </mxCell>
                <mxCell id="a9YrrqM9pUhJxThZkxXl-4" value="" style="rounded=1;arcSize=2;movable=1;resizable=1;rotatable=1;deletable=1;editable=1;connectable=1;fontFamily=Helvetica;fontSize=27;perimeter=rectanglePerimeter;shadow=0;dashed=1;align=left;verticalAlign=top;whiteSpace=wrap;strokeWidth=4;fillColor=none;strokeColor=#CCE5FF;fontColor=#BD3C39;" parent="1" vertex="1">
                    <mxGeometry x="850" y="1081.87" width="40" height="38.13" as="geometry"/>
                </mxCell>
            </root>
        </mxGraphModel>
    </diagram>
</mxfile>